<svg xmlns="http://www.w3.org/2000/svg" viewBox="0 0 68 59"><g transform="translate(.126968 -1)" fill-rule="evenodd" fill="none"><g stroke-width=".72" stroke-linejoin="round" stroke-linecap="round" stroke="#fff"><path d="m34.4900772 40.54104c2.2105965 0 4.0060351-2.4252 4.0060351-5.4096 0-2.9832-1.7954386-5.4096-4.0060351-5.4096s-4.0060351 2.4264-4.0060351 5.4096c0 2.9844 1.7954386 5.4096 4.0060351 5.4096z"></path><path d="m44.0420491 40.54104c2.2070176 0 4.0060351-2.4252 4.0060351-5.4096 0-2.9832-1.7978246-5.4096-4.0060351-5.4096-2.2105965 0-4.008421 2.4264-4.008421 5.4096 0 2.9844 1.7978245 5.4096 4.008421 5.4096z"></path><path d="m51.5214526 37.84344c-1.7381754-.3456-3.4524912 1.1976-3.9046315 3.5136-.4545264 2.3124.5511578 4.3944 2.2893333 4.7376 1.7369824.3444 3.4536842-1.1976 3.9058245-3.5112.4533334-2.3148-.5547368-4.3968-2.2905263-4.74z"></path><path d="m30.915186 41.35668c-.4533334-2.316-2.1676492-3.858-3.9058246-3.5136-1.7357895.3432-2.7438596 2.424-2.2905263 4.74.4533333 2.3136 2.1700351 3.8556 3.9058245 3.5124 1.7381755-.3444 2.7426667-2.4252 2.2905264-4.7388z"></path><path d="m45.3136491 47.30928c-.472421-2.9304-3.0039298-5.1768-6.047228-5.1768-3.0456843 0-5.578386 2.2464-6.0496141 5.1768-2.1676491.9516-3.6863158 3.126-3.6863158 5.652 0 3.3984 2.7486316 6.1644 6.1283509 6.1644 1.3480702 0 2.5935439-.4404 3.607579-1.1856 1.0116491.7452 2.2583157 1.1856 3.6063859 1.1856 3.3797193 0 6.1283509-2.766 6.1283509-6.1644-.001193-2.526-1.5210526-4.7004-3.6875088-5.652z"></path><path d="m55.4289474 19.74324c1.358807 0 2.4647017-1.4928 2.4647017-3.3276 0-1.836-1.1058947-3.3288-2.4647017-3.3288-1.36 0-2.4658948 1.4928-2.4658948 3.3288 0 1.8348 1.1058948 3.3276 2.4658948 3.3276z"></path><path d="m61.3053404 19.74324c1.358807 0 2.4647017-1.4928 2.4647017-3.3276 0-1.836-1.1058947-3.3288-2.4647017-3.3288-1.36 0-2.4647018 1.4928-2.4647018 3.3288 0 1.8348 1.1047018 3.3276 2.4647018 3.3276z"></path><path d="m65.9083439 18.08328c-1.0689123-.2112-2.1247018.7368-2.4038597 2.1612-.2779649 1.4244.341193 2.7048 1.4101053 2.916 1.0677193.2124 2.1247017-.7368 2.4026666-2.16.2791579-1.4244-.34-2.706-1.4089122-2.9172z"></path><path d="m51.8191018 23.16096c1.0701052-.2124 1.6892631-1.4928 1.4101052-2.9148-.2791579-1.4256-1.3337544-2.3748-2.4038596-2.1624-1.0677193.2112-1.6880702 1.4916-1.4089123 2.9172.2779649 1.422 1.3349474 2.3712 2.4026667 2.16z"></path><path d="m62.0887719 23.90868c-.2910877-1.8036-1.8491228-3.1848-3.7221052-3.1848-1.8729825 0-3.4322106 1.3812-3.7209123 3.1848-1.3337544.5844-2.2690526 1.9236-2.2690526 3.4764 0 2.0928 1.6916491 3.7932 3.7710175 3.7932.8291228 0 1.5962105-.27 2.2189474-.7284.6239298.4584 1.3898245.7284 2.2201403.7284 2.0781755 0 3.7698246-1.7004 3.7698246-3.7932 0-1.5528-.9341053-2.892-2.2678597-3.4764z"></path></g><path transform="translate(0 .68592)" fill="#fff" d="m15.7279228 21.32724c2.3573333-3.696 11.3202105-17.442 13.328-19.6164.6704561-.7272 1.4375439-.9336 2.3454035-.6312l.0441404.0228c.1717894.0624.5809824.282 1.5449122.978 2.2094036 1.5924 5.8074386 4.572 6.5840702 5.2188l-.0047719.006-6.5816842-4.2552-.1204912.096c-.3256843.2592-.6680702.5508-1.0176141.864l-.1956491.1764 6.6484912 4.9824-.0536842.0804-7.1781754-4.5132-.1204913.1176c-.1932631.1896-.3960701.3936-.606035.6084l-.1717895.1764 6.9777544 5.2284-.0548772.0792-7.4871579-4.7064-.1204912.132c-.1777544.1956-.3626667.4008-.548772.6144l-.1538947.1752 7.210386 5.4036-.0536843.0792-7.7018947-4.842-.1192982.144c-.1670176.2016-.3352281.4068-.5070176.6204l-.1395789.1752 7.3678596 5.52-.0536842.0804-7.8378947-4.9284-.1181053.156c-.1562807.204-.3137544.414-.472421.63l-.1288421.1728 7.4573333 5.5872-.0536842.0792-7.9058948-4.9704-.1169122.1656c-.1479299.21-.2970527.4236-.4461755.642l-.1181052.1716 7.4871578 5.6088-.0548771.0804-7.9106667-4.974-.2529123.3828c-.0596491.0924-.1157193.1812-.1717895.2724l-.2195087.3492 7.4561403 5.5872-.0536842.0804-7.8534035-4.938-.1121404.1884c-.1371929.2304-.2731929.4608-.4008421.6852l-.0942456.1656 7.3607018 5.5164-.0548772.0792-7.7174035-4.8516-.1085614.2028c-.1312281.246-.2541053.4848-.3745965.7224l-.0823158.162 7.1841403 5.3832-.0536842.0792-7.4990877-4.7148-.1025965.2184c-.1240702.2616-.2433684.5172-.3543158.7656l-.0715789.1584 6.9276491 5.1912-.0548772.0792-7.1960702-4.5252-.0978245.2328c-.1192983.2856-.2302456.558-.3340351.8184l-.0608421.1548 6.5900351 4.9368-.0536842.0804-6.8202807-4.2876-.4748071 1.2636 6.1951579 4.6416-.0501052.0732c-.886386-.6012-4.7421053-3.1764-6.3860351-3.5916-.9329123-.234-3.6564912.8664-5.5390176 3.8052-1.3922105 2.1756-2.4754386 4.854-3.4083508 8.43l-.0477193.1848c-.59052635 2.2656-1.20133336 4.608-2.44919301 6.6156-.88996492 1.434-1.97080702 2.9748-3.5228772 3.1188-.76708772.0708-1.56280701-.1596-2.23922807-.6468-.61677193-.444-1.09396491-1.074-1.34568421-1.7712-.65614035-1.8228.44617544-3.1608 1.8431579-4.5984.43543859-.4488.8768421-.894 1.31824561-1.338 1.06652632-1.0752 2.16884211-2.1876 3.18764912-3.3492 1.98392983-2.2596 4.38540356-6.252 6.50533336-9.774.814807-1.3536 1.5842807-2.6328 2.2487719-3.6744m-2.6150175 3.45c-2.110386 3.5076-4.50231583 7.482-6.46000004 9.7128-1.01045614 1.152-2.10919298 2.2596-3.17094737 3.33-.4414035.4464-.88280701.8916-1.32063157 1.3416-1.44470176 1.4868-2.68063158 2.9904-1.93978948 5.046.28035088.7788.81361404 1.4808 1.49957895 1.9752.75992982.5472 1.65705263.8052 2.52673684.726 1.7477193-.1608 2.9037193-1.7988 3.84856141-3.3192 1.28245614-2.064 1.90161403-4.4388 2.49929826-6.7356l.0489123-.1848c.9209824-3.5304 1.9863158-6.1692 3.3534736-8.3052 1.7477193-2.7288 4.2684913-3.8232 5.0737544-3.6204 1.7512983.4404 6.3800702 3.618 6.4265965 3.6504l.1765614.1212.5237193-.7704-6.2655438-4.6956.1753684-.468 6.7260351 4.2288.5177544-.7632-6.6544562-4.9872c.0548772-.1368.1121404-.2784.1717895-.4224l7.1173333 4.4748.5201404-.762-6.9813334-5.2308c.0572632-.126.1157193-.2532.1765614-.3816l7.4394386 4.6776.5189474-.7632-7.2235088-5.4132c.0584562-.1152.1192983-.2316.1801404-.3492l7.6768421 4.8276.5201403-.7632-7.3857543-5.5344c.0608421-.1068.1252631-.216.1884912-.324l7.8319298 4.9248.5189474-.7644-7.4692632-5.5956.0095439-.0144c.0536842-.0876.1085614-.1752.1670175-.2652l.0202807-.03 7.9070877 4.9716.5189474-.7644-7.4859649-5.6076c.070386-.1008.139579-.2016.2087719-.3l7.9118597 4.974.5189474-.7632-7.4442106-5.5776c.0751579-.0996.1491228-.1992.2230877-.2964l7.8557895 4.9392.5189474-.7632-7.341614-5.4996c.0823157-.1008.1634385-.1992.2421754-.2964l7.7341053 4.8624.5177543-.7644-7.1662456-5.37c.0906667-.102.1801404-.2016.2684211-.3l7.5336842 4.7364.5189474-.7632-6.9133334-5.1804c.1037895-.1056.206386-.2088.3065965-.3072l7.2414035 4.5528.5189474-.7632-6.5578246-4.9128c.2326316-.2052.4616842-.3984.682386-.5784l6.6735439 4.3164.4604912-.678-.1503158-.1248c-.0417544-.036-4.2708772-3.57-6.7570526-5.3628-.7885614-.5688-1.3194386-.9036-1.6188772-1.0212l-.002386-.0024-.0501053-.024c-1.082035-.3732-2.034035-.126-2.8273684.7344-2.174807 2.3556-11.7115088 17.0688-13.3757193 19.6776-.6668772 1.0464-1.4375438 2.328-2.2535438 3.6828"></path></g></svg>