<svg viewBox="0 0 67 67" xmlns="http://www.w3.org/2000/svg"><path d="M33.5.65a32.85 32.85 0 0 1 27.47 50.88l-.04.28a.35.35 0 0 1-.36.3 32.82 32.82 0 0 1-39.95 11.61l-.45-.2L3.45 65.4a.35.35 0 0 1-.38-.24l-.01-.07v-.07L4.6 49.14l-.23-.42a32.67 32.67 0 0 1-3.7-14.03l-.02-.6-.01-.59A32.85 32.85 0 0 1 33.5.65Zm4.77 37.25v.02l-.01.02v.1l-.01.28v.6c.03.95-.68 1.62-2.5 2.47l-.47.2-.5.22-.56.22-.6.24-1.42.55-.57.23-.5.21a7.5 7.5 0 0 0-1.95 1.08c-.22.2-.4.62-.54 1.23l.63.27.23.1.4.18c.59.28 1.01.54 1.33.82a8.2 8.2 0 0 1 2.62 6.05.35.35 0 0 1-.7-.04 7.52 7.52 0 0 0-2.37-5.48 5.3 5.3 0 0 0-1.13-.7l-.4-.18-.46-.2-.8-.32-2.07-.79-.6-.23-.66-.27-.6-.26-.42-.2-.39-.2c-1.27-.67-1.77-1.27-1.75-2.08v-.91.02h.03l-.02-.04a.35.35 0 0 1-.03-.06 8.17 8.17 0 0 1-6.01-.22c.02.04.03.1.02.15 0 .04-.01.09-.03.13l-.03.05.03-.01v-.01.9c.03.9-.6 1.54-2.22 2.3l-.43.2-.23.1-.49.2-.53.22-.9.34-1.46.55-.56.22-.5.2-.44.19-.2.09-.37.17-.33.17c-.3.17-.54.32-.73.48-.28.24-.5.81-.63 1.67a.35.35 0 0 1-.15.24l-1.5 15.28 16.3-1.83.06-.01h.13l.07.02A32.12 32.12 0 0 0 60.28 51.3a8.44 8.44 0 0 0-2.92-6.94 5.57 5.57 0 0 0-1.12-.65l-.4-.18-.21-.09-.48-.19-.53-.2-2.45-.87-.6-.21-.54-.2-.5-.2-.46-.19-.21-.1-.4-.17c-1.53-.72-2.12-1.33-2.1-2.19V38v.02h.04l-.03-.04-.02-.03a7.87 7.87 0 0 1-4.5 1.37 7.87 7.87 0 0 1-4.58-1.42ZM33.5 1.35A32.15 32.15 0 0 0 4.91 48.23c.17-.59.4-1.02.71-1.3.4-.32.93-.63 1.72-.98l.5-.22.53-.2 2.34-.9.56-.2.51-.22.47-.2.53-.23.46-.22.32-.18c.85-.47 1.22-.89 1.2-1.32v-.95l.03-.2v-.07l.03-.04.05-.04.15-.07.07-.04a5.99 5.99 0 0 1-3.42-4.75 2.21 2.21 0 0 1-1.25-4.2l.03.2a8.4 8.4 0 0 1 3.9-8.47v.08a4.4 4.4 0 0 1 8.8-.09 8.4 8.4 0 0 1 3.94 8.25 2.21 2.21 0 0 1-1.25 4.22c-.16 2.13-1.62 3.94-3.7 4.9l-.02-.01c.03.02.04.03.05.06v.08l.02.12v.17l.01.22v.63c-.02.51.5 1 1.68 1.59l.38.18.42.19.46.2.51.2.55.22 1.78.67c.16-.7.4-1.2.74-1.5.4-.36.98-.69 1.85-1.07l.5-.22.56-.23 1.73-.67.58-.23.53-.22.49-.2.54-.25.48-.24c1.11-.57 1.59-1.05 1.57-1.55v-.94l.03-.25c0-.05.01-.07.05-.09l.2-.1a5.66 5.66 0 0 1-2.07-3.85 2.21 2.21 0 0 1-1.23-4.2l-.42-3.25a4.2 4.2 0 0 1 4.14-4.85 8.39 8.39 0 0 1 5.43-1.98c5.25 0 9 4.28 7.56 10.08a2.21 2.21 0 0 1-1.3 4.2 5.66 5.66 0 0 1-2.1 3.88l.14.07c.03.02.04.03.05.06l.02.2.01.17v.85c-.01.5.5.96 1.71 1.53l.48.22.55.23.5.2.81.3.6.21 1.55.55.62.22.56.21.5.2c.85.36 1.43.67 1.86 1a9.17 9.17 0 0 1 3.2 6.37A32.15 32.15 0 0 0 33.5 1.35ZM18.75 22.88a7.7 7.7 0 0 0-7.65 8.67c.32-.03.65 0 .98.1.37.12.69.33.93.65l.11.15.71-.73c.12-.12.3-.14.43-.06l.07.05c.12.11.14.3.06.43l-.05.06-1.06 1.1a.35.35 0 0 1-.59-.13 1.27 1.27 0 0 0-.83-.85c-.28-.1-.6-.1-.9-.05l-.19.04a1.51 1.51 0 1 0 1.17 2.8.35.35 0 0 1 .41.52v-.15c0 2.93 2.85 5.33 6.4 5.33 3.47 0 6.28-2.3 6.4-5.13l.01-.23c0-.05 0-.1.03-.16a.35.35 0 0 1 .46-.19 1.51 1.51 0 1 0 1.15-2.8l-.16-.05-1.47.57a.35.35 0 0 1-.31-.02l-.06-.05-.8-.8-.06.01c-3.82.8-8.7-1.17-10.28-3.7l-.1-.17a.35.35 0 1 1 .6-.34c1.35 2.38 6.23 4.37 9.87 3.48.1-.03.2 0 .27.04l.06.05.77.77 1.27-.5.01-.1a7.7 7.7 0 0 0-7.66-8.61Zm24.93-2.76c-2.2 0-4.25.93-5.7 2.53a.35.35 0 0 1-.54-.45 3.5 3.5 0 0 0-2.66 3.77l.42 3.29c.32-.03.65 0 .97.1.37.12.69.34.93.65l.11.16.72-.74c.11-.12.29-.14.43-.06l.06.05c.12.12.14.3.06.43l-.05.06-1.06 1.1a.35.35 0 0 1-.58-.13 1.27 1.27 0 0 0-.84-.85c-.25-.08-.53-.1-.8-.06v.01l-.03.03-.05.03-.06.02a1.51 1.51 0 1 0 1.02 2.85.35.35 0 0 1 .42.53v-.16c0 2.93 2.85 5.34 6.4 5.34 3.46 0 6.27-2.3 6.4-5.14v-.22c0-.06 0-.11.03-.17a.35.35 0 0 1 .46-.18 1.51 1.51 0 1 0 1.1-2.82.3.3 0 0 1-.12-.01l-.03-.01-1.43.56a.35.35 0 0 1-.42-.13l-.03-.07-.73-1.77-.27.06c-4 .76-8.64-.47-10.07-2.66l-.1-.16a.35.35 0 0 1 .61-.35c1.18 2.09 6.02 3.33 9.96 2.36.15-.03.3.03.38.15l.03.06.7 1.73 1.23-.48c1.35-5.36-2.04-9.25-6.87-9.25Zm-24.93-.32a3.7 3.7 0 0 0-3.67 3.22 8.38 8.38 0 0 1 7.34 0 3.7 3.7 0 0 0-3.67-3.22Z" fill-rule="nonzero" fill="#FFF"></path></svg>