<svg xmlns="http://www.w3.org/2000/svg" viewBox="0 0 24 24"><path d="M5.571 2.31a.722.722 0 0 1 .098 1.437l-.098.006H4.046a1.634 1.634 0 0 0-1.597 1.514l-.005.166v14.458a1.634 1.634 0 0 0 1.431 1.654l.157.011h16.922a1.634 1.634 0 0 0 1.597-1.513l.005-.167V5.42a1.634 1.634 0 0 0-1.431-1.655l-.157-.01h-1.54a.722.722 0 0 1-.097-1.438l.098-.006h1.553a3.078 3.078 0 0 1 3.015 2.923l.003.2v14.429a3.078 3.078 0 0 1-2.825 3.127l-.207.011H4.018a3.078 3.078 0 0 1-3.015-2.924l-.003-.2V5.448A3.078 3.078 0 0 1 3.826 2.32l.207-.01h1.54zM17.89 17.322a1.107 1.107 0 1 1 0 2.214 1.107 1.107 0 0 1 0-2.214zm-5.389 0a1.107 1.107 0 1 1 0 2.214 1.107 1.107 0 0 1 0-2.214zm-5.389 0a1.107 1.107 0 1 1 0 2.214 1.107 1.107 0 0 1 0-2.214zm10.778-4.62a1.107 1.107 0 1 1 0 2.214 1.107 1.107 0 0 1 0-2.213zm-5.389 0a1.107 1.107 0 1 1 0 2.214 1.107 1.107 0 0 1 0-2.213zm-5.389 0a1.107 1.107 0 1 1 0 2.214 1.107 1.107 0 0 1 0-2.213zM17.89 8.085a1.107 1.107 0 1 1 0 2.213 1.107 1.107 0 0 1 0-2.213zm-5.389 0a1.107 1.107 0 1 1 0 2.213 1.107 1.107 0 0 1 0-2.213zM7.88 0c.366 0 .668.272.716.624l.007.098v3.85a.722.722 0 0 1-1.437.097l-.007-.098V.721c0-.398.323-.721.722-.721zm9.24 0c.364 0 .666.272.714.624l.007.098v3.85a.722.722 0 0 1-1.437.097l-.007-.098V.721c0-.398.323-.721.722-.721zm-2.31 2.31a.722.722 0 0 1 .097 1.437l-.097.006h-4.62a.722.722 0 0 1-.097-1.437l.097-.006h4.62z"></path></svg>