<svg xmlns="http://www.w3.org/2000/svg" viewBox="0 0 46 44"><path transform="translate(-228 -791)" fill="#fff" d="m273.173651 830.691682v-14.880872h-7.92253c.798909 1.982874 1.311793 4.18309 1.311793 5.626913 0 3.309992-2.712269 5.994703-6.059842 5.994703s-6.059843-2.684711-6.059843-5.994703c0-1.443823.512884-3.644039 1.311794-5.626913h-10.847565c.451512 1.347903.721455 2.701319.721455 3.648647 0 2.761423-2.281457 4.999998-5.095776 4.999998-2.81432 0-5.095777-2.238575-5.095777-4.999998 0-.947329.269944-2.300744.721456-3.648647h-7.332193v14.039448c7.209473-.23529 13.713928.313231 19.513322 1.646916 5.849847 1.345288 13.125703 2.243288 21.825501 2.692566.227872.011768.402877.202563.390884.426152-.011993.22359-.206443.395305-.434316.383538-8.745203-.451623-16.068058-1.355424-21.970633-2.712838-5.732242-1.318242-12.173814-1.860384-19.324758-1.62507v3.257387c0 .223899-.184983.405405-.413171.405405s-.413452-.181506-.413452-.405405v-3.633315c0-.01022 0-.020229 0-.030153v-14.850036c0-.223899.185264-.405405.413452-.405405h8.325995c.287035 0 .486613.280108.388046.544621-.535583 1.437277-.863791 2.945807-.863791 3.914836 0 2.313624 1.911491 4.189187 4.269435 4.189187 2.357943 0 4.269434-1.875563 4.269434-4.189187 0-.969029-.328208-2.477558-.86379-3.914836-.098568-.264513.101011-.544621.388046-.544621h12.046155c.297239 0 .497233.298725.379197.566395-.89227 2.023399-1.482608 4.409792-1.482608 5.871328 0 2.863776 2.343933 5.183893 5.233501 5.183893s5.2335-2.320117 5.2335-5.183893c0-1.461536-.590338-3.847929-1.482607-5.871328-.118036-.26767.081957-.566395.379196-.566395h8.953661c.228188 0 .413178.181506.413178.405405v15.673628.004665 1.078455c0 .223899-.18499.405406-.413178.405406s-.413171-.181507-.413171-.405406v-.659048c-8.646303.3286-15.338296-.175645-20.08445-1.518995-.219248-.062056-.345714-.286758-.282469-.501885.063244-.215128.29225-.339217.511499-.277161 4.652916 1.31696 11.274224 1.814593 19.85542 1.486618zm-32.673651-11.780263c.952438 0 1.712811.768172 1.878454 1.758185.467635-.521548.746546-1.230258.746546-1.995786 0-1.155604-.635774-2.177705-1.586048-2.625038-.298926-.140717-.424776-.702649-.535748-1.750491-.112918-1.066215-.133869-2.344945-.032233-3.733227.01684-.230021.225891-.403463.466928-.387393s.422785.215568.405945.445589c-.098166 1.340878-.077994 2.57205.029925 3.591067.041848.395141.095126.734721.150713.982922.015372.068639.030324.127344.043896.173752 1.17466.620963 1.931622 1.891939 1.931622 3.302819 0 1.380944-.724875 2.631913-1.867663 3.268061-.333239.185502-.73667-.101482-.645566-.459229.033153-.130183.050266-.26683.050266-.406772 0-.751697-.487657-1.329446-1.037037-1.329446s-1.037037.577749-1.037037 1.329446c0 .139942.017113.276589.050266.406772.091104.357747-.312327.644731-.645566.459229-1.142788-.636148-1.867663-1.887117-1.867663-3.268061 0-1.492021.846604-2.820641 2.121673-3.395999.00094-.013366.001872-.02742.002793-.042151.010819-.173067.019626-.424343.029705-.82532-.001074.04272.031605-1.376253.045646-1.883756.024543-.8871.054765-1.715924.095847-2.563394.107909-2.226007.280666-4.349537.543191-6.407307.281704-2.2081.823044-4.230002 1.523085-6.002623.464345-1.175797 1.020261-2.247723 1.209308-2.429701.170112-.163752.447119-.164897.618712-.002559.171593.162339.172794.426687.002681.590438.023045-.022183.019722-.017691.017836-.014849-.017073.025723-.040079.062623-.066962.107775-.066752.112111-.147964.258886-.23632.429256-.233462.450166-.482631.99667-.726471 1.614114-.676291 1.712481-1.200379 3.669946-1.473283 5.809064-.259633 2.035106-.430745 4.138422-.537712 6.34498-.040791.841473-.070816 1.664914-.095217 2.546845-.013979.505286-.046625 1.922805-.045593 1.881741-.010321.410612-.019377.669001-.031006.855021-.006962.11136-.014901.196796-.025116.262758-.007175.046335-.015767.086227-.028607.125184-.011591.035168-.026193.068779-.04809.104121-.048249.077877-.117143.144641-.228404.185196-1.056286.385018-1.792696 1.467312-1.792696 2.711166 0 .765528.278911 1.474238.746546 1.995786.165643-.990013.926016-1.758185 1.878454-1.758185zm20.5 2.401544c1.128352 0 2.022799 1.058272 2.123825 2.379998.670107-.694558 1.076175-1.701152 1.076175-2.795245 0-1.506692-.77036-2.84231-1.926911-3.429451-.294129-.149319-.444621-.873994-.567826-2.128597-.132123-1.345416-.156656-2.960198-.037607-4.713879.01553-.228767.206763-.401149.42713-.385027.220367.016121.386421.214643.370891.443409-.115821 1.706126-.092012 3.273196.035461 4.571269.049566.504737.11277.939174.178995 1.258073.023466.112997.046288.206027.066401.273439 1.367297.757717 2.253466 2.344626 2.253466 4.110764 0 1.711599-.831946 3.25997-2.140057 4.045268-.305049.18313-.672639-.103038-.588741-.458333.040996-.173612.062131-.355608.062131-.541797 0-1.010571-.61739-1.799399-1.333333-1.799399s-1.333333.788828-1.333333 1.799399c0 .186189.021135.368185.062131.541797.083898.355295-.283692.641463-.588741.458333-1.308111-.785298-2.140057-2.333669-2.140057-4.045268 0-1.87395.997705-3.537147 2.489055-4.230853.002757-.0355.005463-.075936.008086-.121179.012817-.221114.023201-.540602.035078-1.050202-.001257.053938.037153-1.744729.053651-2.387807.028834-1.12391.064335-2.173914.112592-3.247474.126732-2.819379.329608-5.508744.637854-8.114418.331834-2.805071.962867-5.406679 1.761465-7.633142.301445-.840418.611529-1.579548.890342-2.14512.36867-.747847.506142-.967521.811877-.967521.220914 0 .4.185912.4.415246 0 .141217-.067904.265969-.171665.340988-.012946.018062-.029773.043276-.049283.074453-.074004.118254-.170574.295708-.27877.515184-.264132.535791-.561849 1.245441-.852788 2.05657-.777417 2.167412-1.393187 4.706093-1.717143 7.444572-.305557 2.582942-.506903 5.252031-.632759 8.051899-.047986 1.067545-.083305 2.11215-.112005 3.230874-.016441.640853-.05482 2.438062-.053602 2.385785-.012103.519266-.022718.845891-.036289 1.079999-.008013.138234-.017105.243754-.02856.323525-.007676.053458-.016737.098826-.029816.141623-.041045.134304-.096318.230517-.257558.293899-1.286968.505898-2.179762 1.920954-2.179762 3.543099 0 1.094093.406068 2.100687 1.076175 2.795245.101026-1.321726.995473-2.379998 2.123825-2.379998zm-30.647059-3.312963c-.194924 0-.352941-.223858-.352941-.5s.158017-.5.352941-.5h1.294118c.194924 0 .352941.223858.352941.5s-.158017.5-.352941.5zm18.086083 0c-.242466 0-.439024-.223858-.439024-.5s.196558-.5.439024-.5h5.121952c.242466 0 .439024.223858.439024.5s-.196558.5-.439024.5zm-.105691 4c-.184095 0-.333333-.223858-.333333-.5s.149238-.5.333333-.5h1.333334c.184095 0 .333333.223858.333333.5s-.149238.5-.333333.5zm22-4c-.184095 0-.333333-.223858-.333333-.5s.149238-.5.333333-.5h1.333334c.184095 0 .333333.223858.333333.5s-.149238.5-.333333.5z"></path></svg>