<svg xmlns="http://www.w3.org/2000/svg" viewBox="0 0 46 12"><path transform="translate(-636 -676)" fill="#fff" d="m642 687.3c-2.927109 0-5.3-2.372891-5.3-5.3s2.372891-5.3 5.3-5.3 5.3 2.372891 5.3 5.3-2.372891 5.3-5.3 5.3zm0-.6c2.595738 0 4.7-2.104262 4.7-4.7s-2.104262-4.7-4.7-4.7-4.7 2.104262-4.7 4.7 2.104262 4.7 4.7 4.7zm17 .6c-2.927109 0-5.3-2.372891-5.3-5.3s2.372891-5.3 5.3-5.3 5.3 2.372891 5.3 5.3-2.372891 5.3-5.3 5.3zm0-.6c2.595738 0 4.7-2.104262 4.7-4.7s-2.104262-4.7-4.7-4.7-4.7 2.104262-4.7 4.7 2.104262 4.7 4.7 4.7zm17 .6c-2.927109 0-5.3-2.372891-5.3-5.3s2.372891-5.3 5.3-5.3 5.3 2.372891 5.3 5.3-2.372891 5.3-5.3 5.3zm0-.6c2.595738 0 4.7-2.104262 4.7-4.7s-2.104262-4.7-4.7-4.7-4.7 2.104262-4.7 4.7 2.104262 4.7 4.7 4.7z"></path></svg>