<svg xmlns="http://www.w3.org/2000/svg" fill="none" viewBox="0 0 24 24" role="img" width="12" height="12" class="b-block b-ml-1 b-icon"><path fill="currentColor" d="M13.028 7.054a1.008 1.008 0 1 1-2.017 0 1.008 1.008 0 0 1 2.017 0zm-2.061 3.039a.24.24 0 0 0-.24.24v.913c0 .114.08.213.193.236l.338.067a.24.24 0 0 1 .193.235v5.93c0 .133.107.24.24.24h1a.24.24 0 0 0 .24-.24v-7.381a.24.24 0 0 0-.24-.24h-1.724z"></path><path fill="currentColor" fill-rule="evenodd" d="M12 2.5a9.5 9.5 0 1 0 0 19 9.5 9.5 0 0 0 0-19zM4 12a8 8 0 1 1 16 0 8 8 0 0 1-16 0z" clip-rule="evenodd"></path></svg>