<svg xmlns="http://www.w3.org/2000/svg" viewBox="0 0 36 51"><path fill-rule="evenodd" fill="#e1e1e1" d="m26.8948672 27.2854901-.4480049-.4480048c.8722847-.8722847 1.5949344-1.8596921 2.1557204-2.9358269l.5580057.2980115c-.5895417 1.1313165-1.3492214 2.1693204-2.2657212 3.0858202zm3.2120905-5.4606898-.6039573-.1827844c.336139-1.1742851.4968755-2.399951.4783774-3.636177l.6278934.0018756c.0194119 1.2972927-.1493185 2.583915-.5023135 3.8170858zm.2191068-6.3756188-.6147343.1171646c-.2506613-1.2060735-.6721999-2.3779472-1.2550271-3.4796725l.5539326-.2858087c.611034 1.1550449 1.0530041 2.3837182 1.3158288 3.6483166zm-2.7713083-5.86331911-.4872945.38727344c-.3068903-.38300903-.6359166-.75103493-.9858959-1.10228398-.547712-.54774364-1.116842-1.03097802-1.7211538-1.46366641l.3594791-.50835605c.6330775.45328463 1.229144.95939021 1.8021279 1.53240789.3667966.36812659.7113239.75349096 1.0327372 1.15462511zm-5.0896502-4.00249113-.2558223.56880801c-1.129282-.52393694-2.32105-.88334525-3.5378522-1.0697385l.0841689-.62068639c1.2759257.19544997 2.5255039.57229244 3.7095056 1.12161688zm-6.2866583-1.26752958.0360923.62747256c-1.2338337.04887388-2.4470906.27699897-3.5998109.67896695l-.2162078-.5933558c1.2108667-.42224435 2.4848249-.66178293 3.7799264-.71308371zm-6.1081492 1.80104912.3295913.54034662c-.82764457.49540036-1.59540424 1.0912661-2.28976574 1.78069746-.20258033.20247313-.37236016.38247211-.53894227.5707695l-.47359718-.42079866c.17504065-.19785858.35339083-.38694376.56536224-.59880155.73027724-.72509366 1.53728704-1.35142179 2.40735165-1.87221337zm-4.46391149 4.5486763.54620732.3195866c-.60766802 1.0601856-1.04900001 2.2076249-1.31440677 3.4068124l-.61324443-.1461516c.27883166-1.2598451.7426611-2.4657766 1.38144388-3.5802474zm-1.68884612 6.1593381.62783298.0240837c-.02505651 1.2267929.12701868 2.4595831.4522638 3.657491l-.60582606.1543664c-.34106582-1.256177-.50055442-2.5490637-.47427072-3.8359411zm1.37787147 6.247198.56407069-.2658067c.53739273 1.1078524 1.23049503 2.1439292 2.0668975 3.0809022l-.46512678.4134784c-.87618754-.9815419-1.60256193-2.0673551-2.16584141-3.2285739zm24.82545584 7.1282367-.4480049-.4480048c6.5616534-6.5616535 6.4653018-17.2965473-.2152074-23.97705651-6.6805091-6.68050919-17.415403-6.7768608-23.97705642-.21520736-6.56165344 6.56165347-6.46530183 17.29654727.21520736 23.97705647l-.44003424.4400342c-6.92793546-6.9279354-7.02785565-18.0604179-.22317801-24.86509555 6.80467761-6.80467765 17.93716011-6.70475745 24.86509561.223178 6.9279354 6.92793545 7.0278556 18.06041795.223178 24.86509555zm-15.2037324 2.5757299c.0034463 2.414137-1.9865014 4.3686807-4.4443684 4.3652957-2.45716838-.0034194-4.45164356-1.96241-4.4551249-4.375863-.00344632-2.414137 1.98650142-4.3686807 4.4443684-4.3652957 2.4571684.0034194 4.4516436 1.96241 4.4551249 4.375863zm-8.26591742-.0114445c.00298656 2.0704499 1.71448986 3.7515031 3.82244202 3.7544365 2.1072558.0029022 3.8128542-1.6723512 3.8098995-3.7421148-.0029865-2.0704499-1.7144898-3.7515031-3.822442-3.7544365-2.10725581-.0029022-3.81285423 1.6723512-3.80989952 3.7421148zm22.24128482.1565774c.0034463 2.4141369-1.9865014 4.3686807-4.4443684 4.3652957-2.4571684-.0034194-4.4516436-1.9624101-4.4551249-4.3758631-.0034463-2.4141369 1.9865014-4.3686806 4.4443684-4.3652956 2.4571684.0034194 4.4516436 1.96241 4.4551249 4.375863zm-8.2659174-.0114445c.0029865 2.0704498 1.7144898 3.7515031 3.822442 3.7544365 2.1072558.0029021 3.8128542-1.6723513 3.8098995-3.7421149-.0029865-2.0704498-1.7144898-3.751503-3.822442-3.7544365-2.1072558-.0029021-3.8128542 1.6723513-3.8098995 3.7421149zm-16.55337284 7.9733154c.52382393.0007252.94828309.4176326.94902141.932137l.00986939 6.8742137c.000735.5155316-.42415636.9340417-.94902621.9347692l-1.65289691-.0022855c-.52382393-.0007251-.9482831-.4176326-.94902142-.9321369l-.00986939-6.8742137c-.000735-.5155317.42415636-.9340418.94902621-.9347693zm-1.96834598.9316066.0098662 6.8742137c.0002461.1715015.14173249.3104706.31634047.3107124l1.65021788.0022848c.17584962-.0002425.31748008-.1397458.31723508-.3115897l-.00986619-6.8742137c-.00024611-.1715015-.1417325-.3104706-.31634047-.3107123l-1.65021788-.0022849c-.17584963.0002425-.31748009.1397458-.31723509.3115897zm33.22830692 3.6366569-7.2415942 4.6358343-.0889919-.4499755c-.3244586-1.6405824-.4879367-3.1199573-.4898032-4.4388286-.0017905-1.3227241.1587463-2.6449177.4814345-3.9660361l.1038573-.4252025zm-6.8337926-3.6376237c-.2444435 1.1282339-.365817 2.2560284-.3643078 3.3837609.001649 1.1533426.1320026 2.4411004.3915944 3.862755l5.6385489-3.6096166zm-22.90720555 3.6418412.09430146-.4446372 20.90782429.0444454-.0943015.4446372z"></path></svg>