<svg viewBox="0 0 24 24" xmlns="http://www.w3.org/2000/svg"><path d="M17.34 2.25l-.325.007c-.441.02-.878.09-1.303.209l-.188.057h-.035c-.1 0-.199.02-.29.06l-.4.167c-.218.09-.431.198-.637.319l-.416.263c-.549.36-1.07.755-1.56 1.182l-.188.168-.19-.17c-.62-.535-1.284-1.017-1.985-1.44l-.567-.296c-.24-.12-.482-.21-.731-.272-.24-.09-.559-.17-.883-.223-.387-.032-.713-.032-1.037-.008C4.203 2.25 1.984 3.717 1.029 5.97l-.094.236C-.68 10.039.59 13.746 3.895 17.133c2.141 2.193 4.81 3.96 7.306 5.228l.443.218.042.02c.2.092.429.092.628 0l.249-.12.232-.116c2.5-1.27 5.168-3.034 7.31-5.222 3.306-3.38 4.576-7.077 2.948-10.923-.83-2.298-3.005-3.874-5.47-3.964l-.243-.004zm-.008 1.5h.01c1.931-.008 3.659 1.2 4.315 3.015 1.367 3.234.302 6.335-2.624 9.327l-.409.405c-1.797 1.733-3.963 3.185-6.03 4.28l-.594.306-.124-.061c-2.359-1.2-4.902-2.883-6.908-4.937-2.846-2.915-3.932-5.94-2.747-9.058l.108-.267c.685-1.823 2.408-3.005 4.326-2.989.312-.02.562-.02.812-.002.17.03.4.09.624.169.213.057.351.108.483.174l.516.268c.839.508 1.652 1.141 2.382 1.864.293.29.766.29 1.058-.001.723-.722 1.53-1.356 2.403-1.888l.142-.078.149-.075.412-.179c.082 0 .164-.013.242-.04.468-.158.96-.237 1.454-.233z"></path></svg>