<svg xmlns="http://www.w3.org/2000/svg" xml:space="preserve" y="0" x="0" id="Layer_1" version="1.1"><g transform="scale(.32733)" id="g1942"><path fill="#0ba3ad" id="path1938" d="M122.1 88.5V16.3c0-9-7.3-16.3-16.3-16.3H16.3C7.3 0 0 7.3 0 16.3v89.5h.1c0 9 7.3 16.3 16.3 16.3h89.5c9 0 16.3-7.3 16.3-16.3z"></path><path fill="#fff" id="path1940" d="M71.4 49c-2.9-.1-5.9.7-8.5 2.3-2 1.2-2 1.1-2-1.3V38.8c0-2.3-.3-2.6-2.5-2.6h-1.9c-2.1 0-2.2.1-2.2 2.2V65c0 .8-.1 1.6.6 2.1 1.4 1.1 2.9 2.1 4.5 3 .9.5 1.5.1 1.6-1 .1-.9.1-1.8 0-2.7-.1-2.2.6-4.1 1.7-5.8 4-6.2 12.4-6.5 16.8-.6 2.3 3.1 2.7 6.6 2.1 10.3-.4 2.7-1.9 4.9-4.1 6.5-3.8 2.8-8 2.9-12.3 1.7-4.1-1.1-7.6-3.5-11-5.9-2.5-1.8-4.9-3.7-7.4-5.6-4.2-3.1-9-4.1-14.1-3-5.5 1.3-9.4 4.6-11.6 9.8-.7 1.5-.2 2.1 1.4 2.2h4.3c1 0 1.6-.3 2-1.2.1-.3.3-.6.5-.8 1.9-3.1 5.3-4.5 8.8-3.5 1.6.4 3 1.1 4.4 2 3.1 2 6.1 4.1 9 6.3 6 4.5 12.3 7.7 20.1 7 5.3-.4 9.7-2.4 13.1-6.5 2.7-3.2 3.9-7 4-11.2 0-3.8-.6-7.3-2.6-10.5-3.5-5.5-8.4-8.3-14.7-8.6"></path></g></svg>