<svg xmlns="http://www.w3.org/2000/svg" viewBox="0 0 62 58"><path transform="translate(-213 -496)" fill="#fff" d="m218.419352 512.828667c.059096.020317.119662.043416.186663.070769.718442.292099 1.292349.890568 1.602754 1.640657.031311.075872.031311.075872.06236.151929.051329.126426.051329.126426.102291.252816.174692.445052.263591.917899.260962 1.39317l-.003091.420164c-.004132.471086-.010914.986922-.0236 1.853789l-.003986.270897-.000258.017442c-.02256 1.525883-.031165 2.248261-.03346 2.943692l-.000377.138956.324308 3.443674c.018642.197947-.126714.373526-.324661.392168-.173203.016311-.329281-.092938-.378083-.253114l-.014084-.071547-.325894-3.477427.0004-.291476c.001765-.633244.009586-1.304596.027592-2.540179l.004337-.29539.000258-.017443c.019428-1.313991.02666-1.880882.030611-2.538361.002121-.383338-.069745-.765586-.209938-1.122792-.049587-.122936-.049587-.122936-.100117-.247392-.030402-.074472-.030402-.074472-.060824-.148189-.239002-.577546-.674812-1.032008-1.209155-1.249258-.055805-.022782-.104114-.041207-.153834-.058337-.250132-.089919-.511485.070422-.556937.323265l-.006931.07847v1.889204c0 .15802-.101811.29226-.243415.340703.300834.656873.319625 1.487125.194775 3.049074-.008616.107148-.008616.107148-.017308.213883-.05584.685346-.077544 1.001224-.085374 1.299445l-.001953.089288.585423 6.16249c.018803.197932-.126409.373629-.324341.392433-.17319.016452-.329357-.092669-.37829-.252805l-.014142-.071536-.587013-6.200658c.004457-.389171.025206-.70559.088068-1.477127.008672-.106494.008672-.106494.017219-.212782.12309-1.539927.092367-2.299102-.189151-2.809939-.385607-.68654-.967907-1.200307-1.646996-1.435468-.056952-.019902-.108544-.035455-.153372-.046858l-.061996-.014018-1.081219 12.691396c0 1.350636.474302 4.354766 1.232262 8.360234.232527 1.202673.795548 2.308875 1.621041 3.186461l.211802.214557 9.667476 9.41874c1.047974.825783 2.007456 2.287857 2.655403 4.082186.067529.187003-.029325.393342-.216328.460871-.187004.067528-.393342-.029325-.460871-.216329-.564964-1.564529-1.374459-2.844958-2.261086-3.62635l-.191112-.159724-9.69468-9.442482c-1.047192-1.010784-1.758715-2.333874-2.038822-3.782657-.742092-3.9216-1.210745-6.86214-1.242116-8.364986l-.001678-.161044 1.089671-12.790538c0-.326015.206216-.552875.514614-.593255.185274-.024258.396213.015929.64757.103768.640105.221659 1.204799.63473 1.645457 1.181814l.000482-1.477991c0-.794523.782438-1.347103 1.522694-1.080953zm52.473961.957597.006383.123356-.001293 1.479849c.440356-.547444 1.005745-.961534 1.646272-1.183339.15139-.052903.287885-.088532.412877-.10333l.121283-.007724.11437.006953c.274131.035893.467527.219129.506209.466938l.007109.095794 1.092258 12.851584c0 1.416895-.475508 4.428663-1.245354 8.496909-.25985 1.343996-.891918 2.580824-1.818394 3.559042l-.218993.221083-9.724217 9.468484c-.932478.734774-1.818508 2.084921-2.423827 3.761202-.067529.187004-.273868.283857-.460871.216329-.187003-.067529-.283857-.273868-.216329-.460871.607451-1.682183 1.488711-3.072346 2.436624-3.899475l.19041-.157839 9.697012-9.444743c.939997-.907316 1.579773-2.096991 1.831409-3.398485.732082-3.868702 1.199482-6.802626 1.232012-8.188571l.001814-.142543-1.081257-12.722148c-.056858.010934-.130946.031165-.217585.06144-.67813.234827-1.26043.748594-1.644627 1.4326-.282928.513371-.313651 1.272546-.190561 2.812473.008546.106288.008546.106288.017219.212782.056576.694384.07904 1.020121.085057 1.389855l.001421.12544-.585423 6.16249c-.018803.197931-.194501.343144-.392432.324341-.17319-.016453-.306017-.153028-.323921-.319514l-.00042-.072919.583833-6.124321c-.004193-.366197-.024313-.673021-.085737-1.426902-.008692-.106735-.008692-.106735-.017308-.213883-.124747-1.560654-.10609-2.390825.194749-3.052-.118122-.038116-.208394-.137628-.235204-.26111l-.008185-.076667v-1.889204c0-.296742-.288723-.500646-.568614-.400067-.044974.015462-.093284.033887-.149782.056951-.534188.216785-.969124.670619-1.208493 1.249052-.071744.173256-.116739.283502-.159656.392357-.141446.360354-.213312.742602-.211192 1.125769l.003394.453815c.003687.408983.009424.857722.019325 1.544985l.007893.539732.000257.017443c.019597 1.325501.028692 2.0463.030562 2.706624l.000182.454175-.324308 3.443673c-.018641.197947-.194221.343302-.392168.324661-.173203-.016312-.306141-.152779-.324181-.319249l-.000479-.072919.322722-3.40992c0-.726933-.007196-1.399376-.027923-2.8217l-.004328-.294702-.000258-.017442c-.01529-1.034149-.023041-1.606492-.027586-2.124769l-.003092-.420253c-.002628-.475099.086271-.947946.26116-1.393501.045004-.11415.091248-.227454.164423-.404166.310777-.75099.883866-1.348981 1.602306-1.640538.06748-.027548.128046-.050647.182397-.069296.70579-.253722 1.445181.228868 1.521056.955929zm-48.934076 14.919278c.786331.527009 1.923863 1.426054 3.325904 2.609292.154738.13059.312058.264115.471764.40038.895145.763763 1.828342 1.581715 2.744517 2.399621.320625.286235.616247.552042.879962.790628.10164.091955.184438.16709.246567.223607.64073.084746 1.296155.21722 1.984766.420388 1.827168.546811 3.426555 1.48234 4.81786 2.691933.935711.813502 1.580803 1.549674 2.24606 2.436046.777013 1.043158 1.387586 2.149024 1.84419 3.292488.856152 2.115501 1.044533 4.499114.580961 6.858993-.134264.675463-.240345 1.372985-.315765 2.095982-.020629.197749-.197659.341334-.395409.320706-.197749-.020628-.341334-.197659-.320706-.395408.07774-.745235.187152-1.464659.325539-2.160857.43721-2.225682.260041-4.467428-.542658-6.450859-.434507-1.088116-1.01477-2.139086-1.752787-3.129894-.636634-.848233-1.251074-1.549424-2.141821-2.323835-1.318226-1.146059-2.829565-2.030086-4.550549-2.545122-.550116-.162305-1.078982-.276981-1.596372-.356964l-.386043-.053684-.198613-.091529c-.05911-.054022-.170837-.155647-.328262-.298071-.262577-.237556-.557024-.502306-.876417-.787442-.912449-.81458-1.841747-1.629114-2.732353-2.389004-.158737-.135439-.31507-.268126-.468799-.397865-1.382964-1.167138-2.504071-2.053202-3.262037-2.5612-1.145451-.765757-2.646702-.642916-3.678648.240571l-.144139.131373 5.637891 6.977211c1.210809 2.165578 1.748951 3.128266 2.421639 4.332397.096967.173573.034865.39289-.138709.489857-.173573.096967-.39289.034865-.489857-.138709-.637231-1.140662-1.15373-2.064671-2.206617-3.956902l-.18056-.32454-5.800577-7.170306c-.109123-.13489-.106507-.328425.006221-.460317 1.25174-1.46454 3.3857-1.780681 4.973857-.718965zm48.851856.718965c.09394.10991.111413.262628.051479.388542l-.045258.071775-5.76624 7.119574c-.605391 1.082766-.874449 1.564011-1.210773 2.165663-.443941.794172-.83599 1.495696-1.210741 2.166511-.096967.173574-.316284.235676-.489857.138709-.173574-.096967-.235676-.316284-.138709-.489857.374785-.670876.766865-1.372455 1.210835-2.166678.312313-.5587.566626-1.013578 1.113569-1.983259l.131572-.233193 5.603427-6.926601c-1.032303-1.001037-2.622691-1.174025-3.82231-.372055-.758316.508232-1.879423 1.394296-3.262386 2.561434-.15373.129739-.310063.262426-.4688.397865-.890606.75989-1.819904 1.574424-2.732353 2.389004-.319393.285136-.61384.549886-.876417.787442-.12594.113939-.222633.201767-.286537.26l-.041725.038071-.198612.091529c-.641681.079473-1.2962.207894-1.981074.410249-1.722325.515435-3.233665 1.399462-4.551891 2.545521-.890747.774411-1.505187 1.475602-2.141036 2.322785-.738802.991858-1.319065 2.042828-1.754195 3.132492-.802076 1.981883-.979245 4.223629-.542192 6.448517.136591.687167.245883 1.407795.325638 2.1611.020933.197717-.122379.374968-.320097.395901-.197717.020933-.374969-.122379-.395901-.320097-.07747-.731723-.183495-1.430808-.315981-2.097327-.463415-2.359085-.275034-4.742698.580496-6.856651.457226-1.145012 1.067799-2.250878 1.845597-3.295085.664472-.885323 1.309564-1.621495 2.245275-2.434997 1.391305-1.209593 2.990692-2.145122 4.819065-2.692291.686104-.202721 1.341578-.335147 1.983564-.420033.062129-.056517.144925-.13165.246564-.223604.263715-.238586.559337-.504393.879962-.790628.916175-.817906 1.849373-1.635858 2.744517-2.399621.159706-.136265.317026-.26979.471764-.40038 1.402041-1.183238 2.539573-2.082283 3.326254-2.609526 1.587807-1.061482 3.721767-.745341 4.973507.719199zm-46.16635-10.27437c.344427.173538.838803.536278 1.329405 1.121817.436974.521533.784405 1.13451 1.017484 1.879717l.081996.28573.489964 4.292652 1.888999 4.379743c.078741.182565-.005425.394396-.18799.473138-.159745.068898-.341897.013071-.437689-.124267l-.035449-.063724-1.910077-4.428612-.027114-.101748-.486171-4.293613c-.19166-.718854-.519654-1.32795-.945841-1.836609-.246431-.294118-.510114-.536085-.772642-.728711-.154013-.113005-.269967-.182852-.328845-.212518-.177559-.089461-.248975-.305924-.159513-.483482.089462-.177559.305925-.248975.483483-.159513zm38.99047.159513c.089462.177558.018046.394021-.159512.483482-.058879.029666-.174833.099513-.328846.212518-.262528.192626-.526211.434593-.772642.728711-.372913.445076-.670648.96705-.861068 1.537384l-.074944.247307-.496 4.345531-.027114.101748-1.910077 4.428612c-.078741.182566-.290572.266732-.473137.187991-.159745-.068899-.244153-.239694-.210009-.403621l.022018-.069517 1.889063-4.379891.499729-4.344422c.219787-.824347.598056-1.526804 1.089652-2.113529.490601-.585539.984977-.948279 1.329404-1.121817.177559-.089462.394021-.018046.483483.159513zm-3.381254 7.371534-.021014.048721-.0061.053027zm-37.520805-10.218101c.932793.84122 1.369455 2.801126 1.13727 6.220558l-.026412.358955.665138 3.128703c.041344.194476-.082794.385647-.277271.426991-.170166.036176-.337802-.054345-.404749-.207825l-.022241-.069446-.676039-3.179979-.006703-.103812c.280146-3.472212-.111593-5.354435-.871188-6.03946-.250529-.225935-.497204-.276698-.705948-.238465-.015426.002826-.022367.004627-.019364.003643-.188932.061926-.392294-.041033-.45422-.229965-.061927-.188933.041032-.392294.229964-.454221.02689-.008813.06521-.018756.113903-.027675.412763-.075601.884926.021565 1.31786.411998zm43.648025-.411998c.048694.008919.087013.018862.113903.027675.188932.061927.291891.265288.229964.454221-.061926.188932-.265287.291891-.45422.229965.003003.000984-.003938-.000817-.019364-.003643-.208744-.038233-.455419.01253-.705948.238465-.733402.661403-1.12388 2.438863-.897784 5.685921l.026596.353539-.00673.103938-.677231 3.17998c-.041414.194461-.232628.318531-.42709.277117-.170154-.036237-.286414-.187166-.285087-.354606l.00797-.072484.666298-3.128643c-.288111-3.641849.145911-5.709224 1.110863-6.579447.432934-.390433.905097-.487599 1.31786-.411998zm-22.145845-19.791102.065303.052259 4.811578 4.859093v-3.69189c0-.17397.123402-.319118.287448-.352686l.072552-.007314h3.617462c.17397 0 .319117.123401.352686.287447l.007314.072553v8.072183l5.323191 5.375757c.050062.050557.08364.114401.0973.183184l.006894.070121v.913898c0 .173969-.123402.319117-.287448.352686l-.072552.007314h-3.258654v13.59049c0 .173969-.123402.319117-.287448.352686l-.072552.007314h-9.044846c-.17397 0-.319118-.123402-.352687-.287448l-.007313-.072552v-5.12098h-2.898654v5.12098c0 .173969-.123402.319117-.287448.352686l-.072552.007314h-9.044846c-.17397 0-.319118-.123402-.352687-.287448l-.007313-.072552v-13.59049h-3.257462c-.17397 0-.319117-.123402-.352686-.287448l-.007314-.072552v-.913898c0-.071149.021063-.140141.059754-.198628l.04444-.054677 14.472231-14.615143c.120745-.121937.306881-.139357.446309-.052259zm-.190503.817201-14.112231 14.251588v.405816h3.257462c.173969 0 .319117.123401.352686.287447l.007314.072553v13.59049h8.324846v-5.12098c0-.17397.123401-.319117.287447-.352686l.072553-.007314h3.618654c.173969 0 .319117.123401.352686.287447l.007314.072553v5.12098h8.324846v-13.59049c0-.17397.123401-.319118.287447-.352686l.072553-.007314h3.258654v-.405816l-5.323191-5.375757c-.050062-.050557-.08364-.114401-.0973-.183184l-.006894-.070121v-7.860265h-2.897462v4.207082c0 .296842-.331911.456204-.560943.299239l-.054863-.045935zm-1.973985 12.138826c.17397 0 .319118.123402.352686.287448l.007314.072552v4.80549c0 .17397-.123401.319117-.287447.352686l-.072553.007314h-4.818115c-.17397 0-.319118-.123402-.352686-.287447l-.007314-.072553v-4.80549c0-.173969.123401-.319117.287447-.352686l.072553-.007314zm3.717616-.031306h4.819307c.17397 0 .319118.123402.352686.287448l.007314.072552v4.80549c0 .17397-.123401.319117-.287447.352686l-.072553.007314h-4.819307c-.17397 0-.319118-.123402-.352687-.287448l-.007313-.072552v-4.80549c0-.17397.123401-.319117.287447-.352686l.072553-.007314h4.819307zm-4.077616.751306h-4.098115v4.08549h4.098115zm8.536923-.031306h-4.099307v4.08549h4.099307zm-6.349473-8.209628c1.030657 0 1.865885.843475 1.865885 1.880755 0 1.038111-.83486 1.880755-1.865885 1.880755-1.031849 0-1.865884-.842271-1.865884-1.880755 0-1.037653.834402-1.880755 1.865884-1.880755zm0 .72c-.632156 0-1.145884.519085-1.145884 1.160755 0 .642414.513272 1.160755 1.145884 1.160755.631876 0 1.145885-.518801 1.145885-1.160755 0-.64121-.514465-1.160755-1.145885-1.160755z"></path></svg>