<svg xmlns="http://www.w3.org/2000/svg" viewBox="0 0 62 58"><g fill-rule="evenodd" fill="#fff"><path d="m59.7618 1.8676v36.4517917c0 .7105-.5699231 1.286875-1.2698077 1.286875h-55.50907692c-.69988461 0-1.26980769-.576375-1.26980769-1.286875v-36.4517917c0-.70929167.56992308-1.28566667 1.26980769-1.28566667h55.50907692c.6998846 0 1.2698077.576375 1.2698077 1.28566667m-58.62219231 0v36.4517917c0 1.0307083.82626923 1.8680833 1.84330769 1.8680833h55.50907692c1.0170385 0 1.8433077-.837375 1.8433077-1.8680833v-36.4517917c0-1.0295-.8262692-1.866875-1.8433077-1.866875h-55.50907692c-1.01703846 0-1.84330769.837375-1.84330769 1.866875"></path><path d="m4.56641923 32.9756583c0-1.482625 1.19111539-2.68975 2.65288462-2.68975h47.03534615c1.4629615 0 2.6528846 1.207125 2.6528846 2.68975v.2187084c0 1.4814166-1.1899231 2.6885416-2.6528846 2.6885416h-47.03534615c-1.46176923 0-2.65288462-1.207125-2.65288462-2.6885416zm2.65288462 3.4884584h47.03534615c1.7801154 0 3.2275769-1.4669167 3.2275769-3.26975v-.2187084c0-1.8040416-1.4474615-3.2709583-3.2275769-3.2709583h-47.03534615c-1.77892308 0-3.22638462 1.4669167-3.22638462 3.2709583v.2187084c0 1.8028333 1.44746154 3.26975 3.22638462 3.26975z"></path><path d="m4.56641923 5.94270417c0-1.482625 1.19111539-2.68854167 2.65288462-2.68854167h47.03534615c1.4629615 0 2.6528846 1.20591667 2.6528846 2.68854167v18.22529163c0 1.482625-1.1899231 2.68975-2.6528846 2.68975h-47.03534615c-1.46176923 0-2.65288462-1.207125-2.65288462-2.68975zm2.65288462 21.49625003h47.03534615c1.7801154 0 3.2275769-1.4669167 3.2275769-3.2709584v-18.22529163c0-1.80283334-1.4474615-3.27095834-3.2275769-3.27095834h-47.03534615c-1.77892308 0-3.22638462 1.468125-3.22638462 3.27095834v18.22529163c0 1.8040417 1.44746154 3.2709584 3.22638462 3.2709584z"></path><path d="m23.8261231 9.56178333c0-1.81129166 1.4546154-3.28545833 3.2406923-3.28545833h7.3410384c1.7872693 0 3.2406924 1.47416667 3.2406924 3.28545833v10.59345837c0 1.8112916-1.4534231 3.28425-3.2406924 3.28425h-7.3410384c-1.7860769 0-3.2406923-1.4729584-3.2406923-3.28425zm3.2406923 14.45891667h7.3410384c2.1032308 0 3.8141924-1.7339583 3.8141924-3.8654583v-10.59345837c0-2.1315-1.7109616-3.86666666-3.8141924-3.86666666h-7.3410384c-2.1032308 0-3.8141923 1.73516666-3.8141923 3.86666666v10.59345837c0 2.1315 1.7109615 3.8654583 3.8141923 3.8654583z"></path><path d="m7.22514615 9.56178333c0-1.81129166 1.45461539-3.28545833 3.24069235-3.28545833h7.3410384c1.7872693 0 3.2406923 1.47416667 3.2406923 3.28545833v10.59345837c0 1.8112916-1.453423 3.28425-3.2406923 3.28425h-7.3410384c-1.78607696 0-3.24069235-1.4729584-3.24069235-3.28425zm3.24069235 14.45891667h7.3410384c2.1032308 0 3.8141923-1.7339583 3.8141923-3.8654583v-10.59345837c0-2.1315-1.7109615-3.86666666-3.8141923-3.86666666h-7.3410384c-2.10323081 0-3.81419235 1.73516666-3.81419235 3.86666666v10.59345837c0 2.1315 1.71096154 3.8654583 3.81419235 3.8654583z"></path><path d="m40.4269808 9.56178333c0-1.81129166 1.4546154-3.28545833 3.2406923-3.28545833h7.3410384c1.7872693 0 3.2406923 1.47416667 3.2406923 3.28545833v10.59345837c0 1.8112916-1.453423 3.28425-3.2406923 3.28425h-7.3410384c-1.7860769 0-3.2406923-1.4729584-3.2406923-3.28425zm3.2406923 14.45891667h7.3410384c2.1032308 0 3.8141923-1.7339583 3.8141923-3.8654583v-10.59345837c0-2.1315-1.7109615-3.86666666-3.8141923-3.86666666h-7.3410384c-2.1032308 0-3.8141923 1.73516666-3.8141923 3.86666666v10.59345837c0 2.1315 1.7109615 3.8654583 3.8141923 3.8654583z"></path><path d="m10.3340885 31.2120958c1.1839615 0 2.2844615.3939167 2.8412692 1.011375v1.721875c-.5568077.6174584-1.6573077 1.011375-2.8412692 1.011375-1.74196158 0-3.21326927-.8567083-3.21326927-1.8729166 0-1.015 1.47130769-1.8717084 3.21326927-1.8717084zm3.3801923 2.5640834h31.8846923v-1.3823334h-31.8846923zm38.6963461-1.8137084c.6331154-.0338333 1.1648846.4700417 1.1648846 1.1370417 0 .6355833-.5317692 1.1467083-1.1648846 1.1068333l-6.2727307-.41325v-1.417375zm-42.0765384 3.5404167c1.3413461 0 2.5563077-.4519167 3.2228077-1.18175h32.3008076l6.5171539.4289583c.0369615.0024167.0715385.003625.1073077.003625.899 0 1.6310783-.7419166 1.6310783-1.6844166.0011909-.9485417-.7893091-1.7134167-1.738386-1.6505834l-6.5171539.4289584h-32.3008076c-.6665-.7298334-1.8814616-1.1805417-3.2228077-1.1805417-2.10323081 0-3.75100004 1.062125-3.75100004 2.4166667 0 1.35575 1.64776923 2.4190833 3.75100004 2.4190833z"></path><path d="m47.8928538 33.5691917 3.832077.2525416h.058423c.4292308 0 .7523462-.1039166.961-.31175.1705-.170375.2575385-.39875.2575385-.6802916 0-.1002917-.0798846-.1824584-.1788461-.1824584-.0989616 0-.1800385.0821667-.1800385.1824584 0 .1824583-.0488846.3202083-.1490385.4192916-.1454615.1437917-.4041923.2187084-.7535384.21025l-3.8237308-.2525416c-.0965769-.0084584-.1848077.068875-.1907692.1691666-.0071539.1002917.0679615.1872917.166923.1933334"></path><path d="m10.6180962 34.4576792c.6879615 0 1.3043846-.1305 1.6191538-.2730834.0906154-.0410833.1311538-.1474166.0918077-.23925-.0405385-.0918333-.1466539-.134125-.2372692-.0918333-.5913847.2658333-2.86392312.5739583-3.81776927-.6585417-.062-.07975-.17407692-.0930416-.25157692-.0314166-.07869231.061625-.09180769.1764166-.031.2561666.61523077.793875 1.68592307 1.0379584 2.62665389 1.0379584"></path><path d="m10.7905038 15.6459833c.0357693 0 .0739231-.00725.1096924-.0241666l6.692423-3.034125c.1359231-.061625.1967308-.2223334.1359231-.3600834-.0608077-.1365416-.2205769-.199375-.3553077-.13775l-6.6924231 3.034125c-.1371153.061625-.1967307.2223334-.1371153.3612917.0453076.1002917.1442692.1607083.2468076.1607083"></path><path d="m17.3732346 15.1243458-4.4210769 2.004625c-.1359231.061625-.1967308.2223334-.1359231.3600834.0453077.1015.1430769.1607083.2456154.1607083.0369615 0 .0751154-.00725.1108846-.0229583l4.4198846-2.004625c.1359231-.061625.1967308-.2223334.1359231-.3600834s-.2205769-.2005833-.3553077-.13775"></path><path d="m27.4222423 15.6477958c.0369615 0 .0739231-.00725.1096923-.0241666l6.6936154-3.034125c.1347308-.061625.1955385-.2223334.1347308-.3600834-.0596154-.1365416-.2193846-.199375-.3553077-.13775l-6.6924231 3.034125c-.1359231.061625-.1967308.2223334-.1359231.3612917.0453077.1002917.1430769.1607083.2456154.1607083"></path><path d="m34.0049731 15.1261583-4.4210769 2.004625c-.1347308.0604167-.1955385.2223334-.1347308.3600834.0441154.1015.1418846.1607083.2456154.1607083.0369615 0 .073923-.00725.1096923-.0241667l4.4210769-2.0034166c.1347308-.061625.1955385-.2223334.1347308-.3600834-.0596154-.13775-.2193846-.199375-.3553077-.13775"></path><path d="m44.0365731 15.6459833c.0369615 0 .0739231-.00725.1096923-.0241666l6.6924231-3.034125c.135923-.061625.1967307-.2223334.135923-.3600834-.0596153-.1365416-.2193846-.199375-.3553077-.13775l-6.692423 3.034125c-.1359231.061625-.1967308.2223334-.1359231.3612917.0441154.1002917.1430769.1607083.2456154.1607083"></path><path d="m50.6193038 15.1243458-4.4210769 2.004625c-.1359231.061625-.1967307.2223334-.1359231.3600834.0453077.1015.143077.1607083.2456154.1607083.0369616 0 .0751154-.00725.1108846-.0229583l4.4198847-2.004625c.135923-.061625.1967307-.2223334.135923-.3600834-.0596153-.13775-.2193846-.2005833-.3553077-.13775"></path><path d="m61.0146769 55.1752792-32.3902307.841v-2.5544167l32.3902307.8397917zm-51.0450769-.105125c-1.53330769.94975-3.84757692 1.9816666-6.35380769 1.678375-.7595-.0918334-2.57776923-.4217084-3.04038462-1.5031667-.1085-.2549583-.14188461-.496625-.09538461-.7225833.18123077-.895375 1.53092307-1.3980417 1.93988461-1.5309584 2.14734616-.6972083 4.30780769-.1244583 5.74215385.4785.60092308.25375 1.20780769.5703334 1.80753846.9412917zm.4602308-.569125 17.7343846-1.0319167v2.5387083l-17.7343846-1.0282916zm50.820923-.65975-32.8504615-.8530834c-.0059615 0-.0119231.003625-.0190769.003625v-.0024166l-18.1242692 1.054875c-.63550005-.3963334-1.28053851-.7346667-1.91842312-1.004125-1.50588462-.6331667-3.77842308-1.2325-6.0593077-.4917917-.60092307.1945417-2.02453846.7685-2.2486923 1.881375-.06557693.319-.02384616.6585417.12280769 1.0005.53773077 1.2566667 2.36553846 1.6554167 3.40761538 1.7810833 2.6648077.322625 5.10069231-.7769583 6.69719235-1.7738333l18.1230769 1.0500417v-.0024167c.0071538 0 .0131154.003625.0190769.003625l32.8504615-.8530833c.1251924-.003625.2241539-.1075417.2241539-.2332084v-1.3279583c0-.1256667-.0989615-.2295833-.2241539-.2332083z"></path><path d="m7.27641538 55.110875c-.03457692.00725-3.46246153.735875-5.34153846.0096667-.11923077-.0447084-.25157692.0157083-.29688461.1353333-.04411539.119625.01430769.2549583.13353846.300875 2.00426923.7733333 5.45480769.0410833 5.60146154.0096667.10730769-.0229584.18123077-.119625.18123077-.2271667 0-.0169167-.00119231-.032625-.00476923-.0495417-.02623077-.1256666-.14903847-.2054166-.27303847-.1788333"></path><path d="m7.37251538 53.910275c-.14665384-.0314167-3.5971923-.7636667-5.60146153.0096667-.11803847.0459166-.17765385.18125-.13353847.300875.0465.1208333.17884616.18125.29688462.1353333 1.87788462-.725 5.30815385.0024167 5.34153846.0096667.12519231.0265833.24680769-.0531667.27303846-.1788334.00357693-.0169166.00596154-.032625.00596154-.0495416 0-.1063334-.07392308-.203-.18242308-.2271667"></path><path d="m61.0146769 46.9953458-32.3902307.841v-2.5544166l32.3902307.841zm-50.9866538-.1474166-8.79565387 1.2989583v-.6790833l3.999-.2912084c.12042308-.0084583.21342308-.1099583.21342308-.232 0-.0048333 0-.010875 0-.0169166-.00953846-.1280834-.12042308-.22475-.24561539-.2150834l-3.96680769.2875834v-.8820834l3.96680769.2887917c.12519231.0096667.23607693-.0882083.24561539-.2162917 0-.0060416 0-.010875 0-.0169166 0-.1208334-.093-.2235417-.21342308-.232l-3.999-.29v-.6790834l8.79565387 1.3110417zm.4602307-.5449584 17.6759616-1.0137916v2.5399166l-17.6759616-1.0005zm50.7625-.6404166-32.8504615-.8530834c-.0059615 0-.0119231.0024167-.0190769.003625v-.003625l-18.1135385 1.0391667-9.49434613-1.4161667v4.2533334l9.49434613-1.402875 18.1135385 1.025875v-.003625c.0071538 0 .0131154.003625.0190769.003625l32.8504615-.8530834c.1251924-.003625.2241539-.1063333.2241539-.2332083v-1.32675c0-.126875-.0989615-.2295833-.2241539-.2332083z"></path></g></svg>