<svg xmlns="http://www.w3.org/2000/svg" viewBox="0 0 73 67"><path transform="translate(-347 -692)" fill="#fff" d="m356.263018 735.801204c1.765126 6.621222 8.684189 13.671432 17.919914 20.180392 2.976028 2.082138 6.697415 2.082138 9.677908.000693 2.603934-1.832672 5.14773-3.815918 7.484723-5.895892.178222-.158621.451288-.142732.609909.03549s.142732.451287-.03549.609908c-2.36348 2.103548-4.932668 4.106591-7.563159 5.957951-3.279037 2.289938-7.395846 2.289938-10.670403-.001065-9.396682-6.622393-16.423447-13.782346-18.258379-20.665421-1.256312-4.735466-2.072087-9.747515-2.309203-14.601613-.368422.502487-.849965 1.03507-1.531238 1.732102l-.234608.238619-.079658.080579c-.818384.827877-1.191328 1.230139-1.583513 1.741009-2.39736 3.122521-2.441732 7.854814-.103701 11.02327.172193.233606.325672.424758.627973.786091l.120667.143892.012884.015334c.779434.927699 1.109736 1.372863 1.420968 2.003855.817729 1.658586.695761 3.73499-.31142 5.286139-.129931.200104-.397477.256991-.597582.127061-.200104-.129931-.256991-.397477-.127061-.597581.841263-1.295618.944202-3.048088.261162-4.433488-.249492-.505821-.526243-.891854-1.145457-1.636334l-.162121-.193864-.012881-.015331c-.396627-.472069-.574435-.690708-.782479-.972949-2.566532-3.478117-2.518186-8.634221.113722-12.062236.388782-.506437.750866-.903686 1.467595-1.632822l.186791-.189453.079626-.080547c1.38012-1.396275 1.94885-2.09153 2.374967-3.070792.075364-.173195.250583-.272062.428867-.258506 1.762227-4.882391 2.410696-6.432909 3.984696-9.114324 2.225436-3.791181 5.274195-7.306492 9.619306-10.839503 1.941934-1.585265 4.689402-3.090923 7.983324-4.319439.223545-.083375.472352.030256.555727.253801.083374.223546-.030257.472353-.253802.555728-3.20993 1.19719-5.875069 2.65773-7.739523 4.179746-7.588194 6.169964-9.97463 10.23542-13.486326 19.99373-.063332.175809-.094794.263012-.130431.361384l-.028074.077431-.019503-.007076c-.023484.06804-.044457.117069-.070855.153404l-.015507-.373738c.163873 5.099716.993694 10.418864 2.321645 15.424365zm18.643113 9.79529.074223.046346 1.419388 1.10794c.444931.227387.93319.366595 1.439865.408988l.15191.0095.162593.003158h2.242961c.194394 0 .390524-.016006.59232-.048033.398351-.060322.784465-.185032 1.115583-.348077l.191729-.102219 1.279647-1.026587c.186101-.149298.457996-.119464.607295.066638.130636.162839.124123.391363-.004219.545968l-.062419.061327-1.330269 1.061579c-.514237.303748-1.07979.506563-1.66493.595158-.161868.025699-.323097.043019-.483878.051711l-.240859.006535h-2.242961c-.134997 0-.266647-.005181-.388135-.015802-.528861-.044247-1.043285-.175695-1.565417-.414871l-.261811-.128661-1.487196-1.150978c-.18868-.146025-.22326-.417358-.077235-.606039.127772-.165096.351482-.212208.531815-.123581zm17.897647-16.376334c1.775695 0 3.237717 1.345968 3.418973 3.073446l7.614541 1.422947c2.267187.42609 3.894855 2.046844 3.894855 3.953282 0 1.902869-1.619949 3.513508-3.859899 3.945317l-.23389.040428-7.416776 1.13773c-.186313 1.720256-1.646323 3.060116-3.417804 3.060116-1.89765 0-3.437882-1.537514-3.437882-3.433123 0-1.897754 1.539516-3.434553 3.437882-3.434553 1.728586 0 3.159638 1.274203 3.401785 2.934877l7.301884-1.119072c1.969557-.301673 3.3607-1.630351 3.3607-3.13172 0-1.396582-1.204143-2.649325-2.97485-3.058999l-.215163-.045069-7.474501-1.397521c-.247781 1.652846-1.676415 2.92102-3.399855 2.92102-1.89765 0-3.437882-1.537514-3.437882-3.433123 0-1.897962 1.539726-3.435983 3.437882-3.435983zm0 10.62959c-1.421533 0-2.573882 1.150315-2.573882 2.570553 0 1.418093 1.153065 2.569123 2.573882 2.569123 1.420818 0 2.573883-1.15103 2.573883-2.569123 0-1.420238-1.152349-2.570553-2.573883-2.570553zm-14.531882-.390798.037596.012226c.417296.135618.626961.181592.95553.186484.337871.005393.548897-.036493.967306-.167175l.038143-.011922c.643312-.201095 1.028883-.26167 1.693996-.196321.350046.034651.635349.100802.92974.21507.604619.237324 1.144737.651259 1.574767 1.205368.126954.16363.231967.299282.426797.551256l.105416.136349c.265546.343487.383592.496045.531297.686421.170735.220059.091673.541798-.16161.657661-1.822739.833807-3.823697 1.350122-6.082254 1.358842-2.304133.009948-4.343135-.509032-6.197388-1.355871-.251064-.114661-.331681-.432133-.16574-.652686.173088-.230132.173088-.230132.346263-.460537.144348-.192052.168406-.224061.272707-.36274l.073814-.098141c.173347-.230317.173347-.230317.34644-.45982.48878-.649389 1.131217-1.113856 1.847429-1.334238.222926-.068347.442212-.111637.747767-.136274.669693-.053545 1.058873.01365 1.711984.226048zm26.454347-7.997815.077608.007442c2.538325.474982 4.514372 2.027018 5.341764 4.051015l2.997131.000117.000681-2.140382c0-.989881.763657-1.799829 1.73482-1.874722l.147161-.005652h4.337059c.238587 0 .432.193413.432.432s-.193413.432-.432.432h-4.337059c-.563089 0-1.017981.454388-1.017981 1.016374v8.664511c0 .561987.454892 1.016374 1.017981 1.016374h4.337059c.238587 0 .432.193413.432.432s-.193413.432-.432.432h-4.337059c-1.040049 0-1.881981-.840999-1.881981-1.880374l-.000681-2.141129-3.039377.000911c-.887786 2.053037-2.969534 3.613539-5.572661 4.012183-.235838.036116-.4563-.12579-.492416-.361628-.036116-.235837.12579-.4563.361627-.492416 3.085697-.472544 5.304493-2.749528 5.304493-5.392212 0-2.585354-2.06751-4.791842-5.059478-5.351711-.234517-.043883-.389055-.269571-.345172-.504088.034132-.182402.178244-.316422.35095-.346331zm-28.097181 8.632996c-.241099.019439-.399003.050612-.563238.100965-.537559.165409-1.0291.520782-1.411136 1.028351-.172958.229325-.172958.229325-.346003.459241-.173089.230132-.173089.230132-.346263.460537l-.017797.023677c1.614723.66995 3.376173 1.070795 5.340462 1.062315 1.919046-.00741 3.642364-.405082 5.224853-1.061781-.055144-.0713-.117951-.152531-.192304-.248707-.265546-.343487-.383592-.496045-.531261-.686375-.336649-.433784-.751326-.751583-1.206327-.930183-.21796-.084599-.426782-.133017-.700378-.1601-.530657-.052138-.809041-.008403-1.35142.161141l-.03834.011984c-.498676.155752-.789722.21352-1.238214.206361-.433212-.00645-.716697-.068611-1.209247-.228685l-.037758-.012279c-.554281-.180257-.83881-.229384-1.375629-.186462zm36.513684-3.710422-2.721583-.000063c.096741.415502.147249.845606.147249 1.285901 0 .469464-.058729.927969-.170543 1.369898l2.744877-.000736zm-20.338968-6.299551c-1.421196 0-2.573882 1.151409-2.573882 2.571983 0 1.418093 1.153065 2.569123 2.573882 2.569123 1.420818 0 2.573883-1.15103 2.573883-2.569123 0-1.420574-1.152686-2.571983-2.573883-2.571983zm-10.047503 1.557294c.232377.054081.376915.286301.322833.518678-.043861.188466-.124099.343477-.253885.486537-.117112.129091-.257928.237122-.534534.423336-.068655.046219-.347724.231501-.38978.259576-.181574.121211-.342705.230648-.514177.349935-1.261256.886927-3.502659.886927-4.76213.001248-.210869-.146702-.773246-.52379-.924316-.624335l-.02354-.015718.013539.009713-.014262-.00963-.013465-.009244-.091158-.06291c-.182726-.128078-.292226-.218428-.386274-.322327-.129439-.142997-.209428-.297868-.253254-.486181-.054081-.232377.090456-.464597.322833-.518678s.464597.090456.518678.322833c.010906.046863.022479.069268.052295.102207.043659.048232.117214.107771.255509.204271l.067559.045946c.001424.001688.00483.004008.009299.007041l.014167.009553.008176.004784c.150765.100333.721126.482803.939422.634678.963097.677259 2.806832.677259 3.771713-.001248.178236-.123999.343813-.236456.529683-.360535l.105276-.070031c.100013-.066494.237761-.158085.281705-.187668.219655-.147874.322039-.226422.377129-.287146.029893-.032951.041435-.055249.052281-.101852.054082-.232377.286302-.376914.518678-.322833zm-4.605075-39.592188c.217537.118279.389123.211456.721813.391987l.153048.083046.308759.167523c4.644588 2.520218 6.856557 3.790436 9.373754 5.476002 7.429871 4.972673 12.50695 11.851657 16.047715 21.14788l.22875.609707.004109.009581c.012397.036134.020125.074393.022482.114034l.000246.015771.000374.021585c-.032218 1.239728-.106029 2.509669-.219047 3.809417-.020667.23769-.230108.413621-.467798.392953s-.413622-.230108-.392954-.467799c.109001-1.253556.181004-2.478224.213858-3.673489-3.489501-9.405129-8.509469-16.303028-15.918379-21.261673-2.40503-1.610456-4.536974-2.842365-8.85101-5.187888l-.454165-.246674-.308729-.167507c-.437802-.237549-.626639-.340069-.87554-.475402-.209607-.113968-.287138-.376277-.17317-.585884s.376277-.287138.585884-.17317zm-16.823027 27.088266c.508421-.01029.980279.095136 1.410273.285223.292439.129277.521035.274591.732493.441441.628908.536596 1.342071.968925 2.158984 1.246376.028041.005382.055064.013551.080938.024184.175164.059564.356894.109788.543633.152289.777122.175737 1.384918.185824 2.202973.114101.523005-.04762.973385-.154356 2.998255-.721992.326877-.091913.646818-.182621.993785-.281585.206678-.05895.429348-.122662.783614-.22405.229398-.065575.468522.06723.534097.296628.065575.229399-.06723.468522-.296629.534097-.353906.101285-.57701.165122-.784097.224189-.347938.099241-.668892.190236-.997225.282558-1.819326.510016-2.413509.660688-2.933319.726778l-.221577.023947c-.900929.078991-1.58808.067587-2.471033-.132083-.187829-.042749-.37106-.092279-.54981-.148154-.277891.049484-.557787.132514-.836204.268602-.439983.215061-.755602.514732-.912181.915711-.086785.222243-.337302.332054-.559546.245269-.222243-.086785-.332054-.337302-.245269-.559545.244065-.625015.717605-1.074629 1.337578-1.377668l.003024-.001477c-.500494-.263421-.958297-.582127-1.377559-.940064-.401842-.316252-.917728-.544309-1.577498-.530957-.603422.012518-1.07509.2224-1.456944.514559-.189486.144978-.460623.108897-.605601-.08059-.144978-.189486-.108897-.460623.08059-.605601.514592-.393719 1.14725-.675238 1.964255-.692186zm35.193394.000004c.816786.016944 1.449445.298463 1.964037.692182.189486.144978.225568.416115.08059.605601-.144978.189487-.416115.225568-.605602.08059-.381853-.292159-.853522-.502041-1.456738-.514554-.658993-.013356-1.176746.215396-1.5641.519789-.424535.363063-.886357.684979-1.389582.952499.62225.303731 1.095728.753125 1.339814 1.377417.086879.222207-.022827.47277-.245033.559649-.222207.086878-.472771-.022827-.559649-.245034-.156569-.400452-.4723-.700123-.912374-.915406-.312489-.152868-.627735-.239243-.938591-.289563l.103857.02002c-.179701.056263-.363857.106083-.552597.14904-.882368.199537-1.56952.210941-2.471993.131812-.593729-.054206-1.073013-.167792-3.153894-.750739-.594452-.167481-1.03864-.294175-1.779702-.506696-.229343-.06577-.361944-.305007-.296173-.534349.06577-.229343.305007-.361944.534349-.296174.739865.212178 1.182985.338567 1.775213.505422 2.026286.567653 2.477079.674486 2.997215.721976.819495.071851 1.427291.061764 2.20383-.113841.186718-.042496.368489-.092728.545529-.150231.025338-.013085.052408-.021271.080291-.026739.818448-.278147 1.535019-.712872 2.171546-1.256853.197661-.15556.427223-.301333.719885-.430636.430152-.190049.901871-.295478 1.409872-.285182zm-29.308254-8.674705c.570074.045124 1.110275.114579 1.616403.210617 1.190935.226952 2.22284.631402 3.101331 1.163419.857016.519013 1.40965 1.045111 1.685099 1.412357.143157.190866.104482.461645-.086384.604802s-.461645.104481-.604802-.086385c-.04711-.06281-.156475-.18726-.330793-.353208-.298618-.284278-.667888-.570365-1.110686-.838525-.792214-.479768-1.727739-.846443-2.815168-1.05367-.473415-.08983-.982891-.155335-1.523177-.198101-1.382271-.109413-2.868774-.067074-4.304684.070265-.30053.028744-.573845.059513-.814489.09023-.143325.018295-.243169.032386-.294094.040192-.235832.036149-.456317-.125727-.492466-.361559-.036149-.235833.125726-.456318.361559-.492467.0579-.008875.164893-.023975.315605-.043212.249418-.031837.531745-.063621.841622-.093259 1.481852-.141733 3.015815-.185424 4.455124-.071496zm26.215997.038038c.309901.029639.592243.061423.84167.093259.150717.019238.257713.034338.315613.043213.235832.036149.397708.256634.361559.492467-.036149.235832-.256634.397708-.492466.361559-.050924-.007806-.150769-.021897-.294099-.040192-.240652-.030716-.513981-.061486-.814534-.09023-1.436953-.137428-2.924611-.179731-4.307964-.070068-.539548.042771-1.048394.108215-1.521093.197869-1.08789.206917-2.023484.573545-2.815707 1.053478-.442205.26789-.811011.55369-1.109277.837683-.174113.165781-.283357.290105-.330417.352847-.143157.190866-.413936.229542-.604802.086385s-.229542-.413936-.086384-.604802c.275203-.366919.827242-.892541 1.683206-1.411088.878608-.532265 1.910721-.936716 3.102162-1.163329.505235-.095824 1.04475-.165212 1.614034-.210341 1.440427-.114187 2.975575-.070534 4.458499.07129z"></path></svg>