<svg xmlns="http://www.w3.org/2000/svg" viewBox="0 0 68 55"><g transform="translate(1 1)" style="stroke:#fff;stroke-width:.72;fill:none;fill-rule:evenodd;stroke-linecap:round;stroke-linejoin:round"><path d="m21.9810827 10.6608564c-1.1351248.4481173-2.0278963.9566193-2.6099585 1.3316395-1.775186-1.1420107-6.4275405-3.5277323-12.08348626-1.6727596-2.97866688.9778069-5.35352195 3.5192573-6.51557489 6.9749518-1.52868996 4.5436768-.75916649 9.784425 2.05896724 14.0187631 1.88289861 2.8296015 3.1112362 6.02257 3.55451486 9.2335479.02589245.1864507.0507492.3750202.07560594.5688866.4267075 3.3847161 1.05537607 6.1030828 1.86736315 8.0767059.97355593 2.3645341 2.22985736 3.6410859 3.73369056 3.7946959.0849272.008475.1698545.0127125.253746.0127125 1.4800121 0 2.717671-1.358124 3.6787986-4.0436499.7115244-1.9852763 1.2728726-4.6443178 1.5794391-7.48981.1719259-1.5911873.5727409-2.8783329 1.1599816-3.7247767.2102466-.3029824.5157775-.3358232.6369541-.3358232.1211767 0 .4267075.0328408.6369542.3358232.5872406.8464438.9880557 2.1335894 1.1599815 3.7247767.3065666 2.8454922.8679148 5.5045337 1.5794392 7.48981.9621632 2.6855259 2.1987864 4.0436499 3.6787986 4.0436499.0838915 0 .1688187-.0042375.2537459-.0127125 1.504869-.15361 2.7601347-1.4301618 3.7336906-3.7946959.8130228-1.9736231 1.4416914-4.6909304 1.8673632-8.0767059.023821-.1864507.0476421-.3697233.0724988-.5487584.442243-3.2162748 1.6757591-6.4198371 3.5648719-9.2621511 1.2159092-1.830607 2.0506816-3.8487242 2.4815319-5.9176915"></path><path d="m15.6 15.9369059c-.9165883-.7189073-3.3171256-2.2196835-6.23666891-1.0520315-1.53767629.6147344-2.7626595 2.2139597-3.36333109 4.3878529"></path><path d="m28.1876539 19.8873928c3.9835386 3.9986278 10.4422136 3.9986278 14.4246922 0 3.9835385-3.9986277 3.9835385-10.48070334 0-14.47933108-3.9824786-3.99862775-10.4411536-3.99862775-14.4246922 0-3.9835385 3.99862774-3.9835385 10.48070338 0 14.47933108z"></path><path d="m26.4905994 21.5910284c4.9207992 4.9392349 12.8990412 4.9392349 17.8188012 0 4.9207992-4.939235 4.9207992-12.94736728 0-17.88660221-4.91976-4.93923492-12.898002-4.93923492-17.8188012 0-4.9207992 4.93923493-4.9207992 12.94736721 0 17.88660221z"></path><path d="m51.6 28.1922966-1.9140894 1.9213398-6.4859106-6.5104784 1.9140894-1.9213398z"></path><path d="m65.0089278 43.5733556c-1.3203579 1.326435-3.4627243 1.326435-4.7841539 0l-10.0345055-10.0714393c-1.3203579-1.326435-1.3203579-3.4769164 0-4.8033514 1.3214296-1.3253593 3.463796-1.3253593 4.7852256 0l10.0334338 10.072515c1.3214296 1.326435 1.3214296 3.4769164 0 4.8022757z"></path></g></svg>