<svg viewBox="0 0 55 63" xmlns="http://www.w3.org/2000/svg"><path d="M27.05.96a.47.47 0 0 1 .4-.03l.07.04.07.05.12.15.26.3.3.35c.68.85 1.37 1.85 2 2.93a19.7 19.7 0 0 1 2.47 6.52l.08.48.15 1.1.9-.67.47-.34.4-.26a20.97 20.97 0 0 1 6.58-2.74c.94-.22 1.85-.39 2.67-.49l.27-.03.57-.06h.16l.3-.02a.4.4 0 0 1 .42.4l-.01.27-.01.15-.05.5-.07.57-.05.3-.1.66-.1.48-.22.97a20.05 20.05 0 0 1-3.07 6.93l-.3.4-.68.9 1.11.16.57.09.5.1c2.01.4 4.02 1.2 6 2.32 1.3.73 2.46 1.54 3.4 2.33l.23.19.16.14.05.06.03.06c.02.04.04.1.04.16 0 .08-.03.16-.08.23l-.06.06-.15.13-.3.25-.38.31c-1.05.83-2.3 1.64-3.66 2.35a18.61 18.61 0 0 1-7.96 2.27l-.48.01h-1.49l1 1.1.3.34.23.29c.46.6.83 1.23 1.1 1.89l.14.34 2.12 5.73H53.8l.1.01.06.02c.14.06.24.2.24.36 0 1.5-.6 2.9-1.66 3.97a5.75 5.75 0 0 1-3.78 1.64H38.85l-.07-.03a.42.42 0 0 1-.17-.14l-.04-.08-3.47-7.7v10.44l.07.18 3.24 3.19.2.07 9.1-.94.23-.02h.51a4.88 4.88 0 0 1 4.69 4.84c0 2.59-2.09 4.73-4.71 4.84H6.07l-.22-.02a4.82 4.82 0 0 1-2.8-8.42 5 5 0 0 1 3.56-1.25l.25.02 9.09.95.2-.07 3.23-3.19.07-.18V39.73l-3.48 7.72-.05.09-.05.05a.42.42 0 0 1-.2.09H5.72l-.27-.03a5.74 5.74 0 0 1-3.43-1.6 5.58 5.58 0 0 1-1.67-3.98c0-.2.15-.36.34-.39h10.39l2.12-5.74.16-.39.15-.32c.3-.65.71-1.27 1.2-1.85l.26-.3 1-1.08-1.5-.01-.53-.01-.46-.03a18.9 18.9 0 0 1-7.44-2.24 23.52 23.52 0 0 1-4.1-2.7l-.25-.22-.15-.14-.06-.06-.03-.06a.38.38 0 0 1 .05-.4v.01l.05-.06.15-.13.3-.25.36-.3c.86-.66 1.86-1.34 2.96-1.96A20.4 20.4 0 0 1 11.9 21l.49-.08 1.11-.15-.68-.9-.34-.46-.27-.4a20.51 20.51 0 0 1-2.77-6.48 20.55 20.55 0 0 1-.6-3.9.37.37 0 0 1 .4-.4l.3.02.17.01.57.06.39.04c.78.1 1.65.27 2.55.48 2.67.64 5.05 1.66 7.04 3.05l.41.3.9.66.16-1.1.09-.56.08-.46c.42-2 1.22-4 2.37-5.98a23.07 23.07 0 0 1 2.37-3.36l.2-.23.14-.16Zm21.18 52.46h-.31l-16.88 1.75 8.63.9.22.03.18.03a3.14 3.14 0 0 1 2.46 3.06c0 .4-.1.81-.27 1.21l-.1.2-.48.96h6.54l.24-.01.2-.02a4.1 4.1 0 0 0 3.68-4.04 4.1 4.1 0 0 0-4.1-4.07Zm-41.9-.01h-.24a4.1 4.1 0 0 0-3.88 4.07 4.1 4.1 0 0 0 3.91 4.07H39.54l.16-.02a2.38 2.38 0 0 0 2.03-2.34c0-1.15-.83-2.12-1.96-2.33l-.17-.02-32.83-3.4-.22-.03h-.22ZM33 30.95H21.2l-.28.02a8.08 8.08 0 0 0-6.87 4.97l-.1.26-2.23 6-.04.08-.03.05a.41.41 0 0 1-.24.12H1.1l.21.83.1.3.09.27a4.89 4.89 0 0 0 4.3 3.05l.26.01h9.3l4.13-9.18.05-.08.05-.05a.4.4 0 0 1 .35-.1.4.4 0 0 1 .31.32V50.54l-.02.03a.44.44 0 0 1-.05.1l-.05.05-3.05 3 10.16 1.06 10.25-1.05-3.06-3.02-.06-.08-.02-.04a.44.44 0 0 1-.03-.1V37.8l.02-.06a.4.4 0 0 1 .29-.22.4.4 0 0 1 .42.16l.04.08 4.13 9.16h9.6l.26-.03a4.86 4.86 0 0 0 4.1-3.32l.08-.27.21-.84H43.1l-.05-.02a.4.4 0 0 1-.2-.18l-.03-.07-2.21-5.98-.12-.3-.11-.26a8.1 8.1 0 0 0-7.36-4.7Zm7.35-9.4-.18.06-.13.12-.42.37-.34.29a20.23 20.23 0 0 1-8.96 3.98l-.48.09-1.6.28 1.35.91.45.3.41.26c3.16 1.95 6.38 3.01 9.55 3.01 3.76 0 7.57-1.47 11.12-4.06l.34-.26.7-.52-.7-.53-.4-.3-.41-.29c-3.09-2.16-6.4-3.46-9.69-3.69l-.44-.02h-.17Zm-26.17 0h-.17l-.52.03-.43.04c-3.29.33-6.58 1.74-9.64 3.97l-.35.26-.7.53.7.52.41.3.38.28c3.42 2.4 7.07 3.74 10.67 3.74 3.33 0 6.72-1.17 10.03-3.31l.38-.26 1.35-.9-1.6-.3-.55-.1-.48-.1a19.46 19.46 0 0 1-8.84-4.22l-.46-.42-.18-.07Zm13.09 5.36-.42.33-.36.28-.4.29c-.4.3-.81.58-1.25.86l-.46.28-2 1.22h9.78l-2.01-1.22-.46-.29-.43-.28c-.43-.28-.83-.57-1.22-.86l-.36-.29-.41-.32ZM9.65 9.02l.11.85.07.5.08.48c.7 4.04 2.3 7.52 4.81 10.03 2.4 2.36 5.67 3.92 9.56 4.7l.46.1 1.6.28-.94-1.31-.31-.46-.27-.4a18.92 18.92 0 0 1-3.2-9.12l-.03-.44v-.17l-.08-.17-.13-.12-.39-.34-.33-.28c-2.57-2.09-5.93-3.4-9.7-3.96l-.45-.06-.86-.1Zm35.26 0-.86.11-.52.07-.49.08c-3.75.64-7.05 2.03-9.54 4.2l-.33.29-.13.12-.08.17-.03.7-.03.43a19.47 19.47 0 0 1-3.49 9.08l-.26.38-.93 1.31 1.6-.29.53-.1.48-.1c3.65-.82 6.7-2.33 8.95-4.54 2.67-2.66 4.31-6.36 4.95-10.64l.06-.42.12-.85ZM27.28 1.84l-.53.67-.31.41-.28.38c-2.43 3.37-3.8 6.97-3.8 10.52 0 3.72 1.5 7.48 4.13 10.98l.26.34.53.67.52-.67.31-.41.28-.38c2.43-3.38 3.8-6.98 3.8-10.53 0-3.72-1.5-7.48-4.13-10.97l-.26-.34-.52-.67Z" fill-rule="nonzero" fill="#FFF"></path></svg>